<svg width="90" height="26" viewBox="0 0 90 26" fill="none" xmlns="http://www.w3.org/2000/svg">
<path d="M6.81427 18.47V6.808H12.0455C13.3894 6.808 14.4223 7.08011 15.1443 7.62434C15.8662 8.15746 16.2272 8.8905 16.2272 9.82346C16.2272 10.4565 16.0828 10.9897 15.794 11.4228C15.5163 11.856 15.1387 12.1892 14.6611 12.4224C14.1835 12.6557 13.6671 12.7723 13.1118 12.7723L13.4116 12.2725C14.078 12.2725 14.6667 12.3891 15.1776 12.6223C15.6885 12.8556 16.0939 13.1999 16.3938 13.6553C16.6937 14.0995 16.8436 14.6549 16.8436 15.3213C16.8436 16.3209 16.466 17.0983 15.7107 17.6537C14.9666 18.1979 13.8559 18.47 12.3787 18.47H6.81427ZM8.48027 17.1205H12.3121C13.2339 17.1205 13.9392 16.965 14.4279 16.6541C14.9166 16.3431 15.1609 15.8544 15.1609 15.188C15.1609 14.5105 14.9166 14.0162 14.4279 13.7052C13.9392 13.3943 13.2339 13.2388 12.3121 13.2388H8.33033V11.8893H11.8956C12.7397 11.8893 13.395 11.7338 13.8615 11.4228C14.3279 11.1118 14.5612 10.6454 14.5612 10.0234C14.5612 9.40141 14.3279 8.93493 13.8615 8.62394C13.395 8.31295 12.7397 8.15746 11.8956 8.15746H8.48027V17.1205ZM23.2883 18.57C22.3442 18.57 21.5112 18.3756 20.7893 17.9869C20.0785 17.5981 19.5231 17.065 19.1233 16.3875C18.7345 15.71 18.5402 14.9325 18.5402 14.0551C18.5402 13.1777 18.729 12.4002 19.1066 11.7227C19.4954 11.0452 20.0229 10.5176 20.6893 10.14C21.3668 9.75127 22.1276 9.5569 22.9717 9.5569C23.827 9.5569 24.5822 9.74571 25.2375 10.1233C25.8928 10.501 26.4037 11.0341 26.7702 11.7227C27.1478 12.4002 27.3367 13.1943 27.3367 14.1051C27.3367 14.1717 27.3311 14.2495 27.32 14.3383C27.32 14.4272 27.3144 14.5105 27.3033 14.5882H19.7897V13.4387H26.4703L25.8206 13.8385C25.8317 13.2721 25.7151 12.7667 25.4707 12.3225C25.2264 11.8782 24.8876 11.5339 24.4545 11.2895C24.0324 11.0341 23.5382 10.9064 22.9717 10.9064C22.4164 10.9064 21.9222 11.0341 21.489 11.2895C21.0558 11.5339 20.7171 11.8837 20.4727 12.3391C20.2284 12.7834 20.1062 13.2943 20.1062 13.8718V14.1384C20.1062 14.7271 20.2395 15.2546 20.5061 15.7211C20.7837 16.1765 21.1669 16.5319 21.6556 16.7873C22.1443 17.0428 22.7052 17.1705 23.3383 17.1705C23.8603 17.1705 24.3323 17.0817 24.7544 16.904C25.1875 16.7263 25.5651 16.4597 25.8872 16.1043L26.7702 17.1372C26.3704 17.6037 25.8706 17.9591 25.2708 18.2034C24.6822 18.4478 24.0213 18.57 23.2883 18.57ZM33.5892 21.802C32.7784 21.802 31.9899 21.6854 31.2235 21.4521C30.4683 21.23 29.8518 20.9079 29.3743 20.4859L30.1406 19.253C30.5516 19.6084 31.0569 19.8861 31.6567 20.086C32.2564 20.297 32.884 20.4026 33.5393 20.4026C34.5833 20.4026 35.3496 20.1582 35.8383 19.6695C36.327 19.1808 36.5714 18.4367 36.5714 17.4371V15.5712L36.738 13.8219L36.6547 12.0559V9.6402H38.1707V17.2705C38.1707 18.8254 37.782 19.9694 37.0045 20.7024C36.2271 21.4355 35.0886 21.802 33.5892 21.802ZM33.3893 18.1035C32.5341 18.1035 31.7677 17.9258 31.0902 17.5704C30.4238 17.2038 29.8907 16.6985 29.4909 16.0543C29.1021 15.4101 28.9078 14.666 28.9078 13.8219C28.9078 12.9666 29.1021 12.2225 29.4909 11.5894C29.8907 10.9452 30.4238 10.4454 31.0902 10.09C31.7677 9.73461 32.5341 9.5569 33.3893 9.5569C34.1446 9.5569 34.8332 9.71239 35.4552 10.0234C36.0771 10.3233 36.5714 10.7897 36.9379 11.4228C37.3155 12.0559 37.5043 12.8556 37.5043 13.8219C37.5043 14.777 37.3155 15.5712 36.9379 16.2042C36.5714 16.8373 36.0771 17.3149 35.4552 17.637C34.8332 17.948 34.1446 18.1035 33.3893 18.1035ZM33.5726 16.704C34.1612 16.704 34.6832 16.5819 35.1386 16.3375C35.594 16.0932 35.9494 15.7544 36.2049 15.3213C36.4714 14.8881 36.6047 14.3883 36.6047 13.8219C36.6047 13.2554 36.4714 12.7556 36.2049 12.3225C35.9494 11.8893 35.594 11.5561 35.1386 11.3229C34.6832 11.0785 34.1612 10.9563 33.5726 10.9563C32.9839 10.9563 32.4564 11.0785 31.9899 11.3229C31.5345 11.5561 31.1735 11.8893 30.907 12.3225C30.6515 12.7556 30.5238 13.2554 30.5238 13.8219C30.5238 14.3883 30.6515 14.8881 30.907 15.3213C31.1735 15.7544 31.5345 16.0932 31.9899 16.3375C32.4564 16.5819 32.9839 16.704 33.5726 16.704ZM41.3933 18.47V9.6402H42.9926V18.47H41.3933ZM42.193 7.94088C41.882 7.94088 41.621 7.84092 41.4099 7.641C41.21 7.44108 41.1101 7.19673 41.1101 6.90796C41.1101 6.60808 41.21 6.35818 41.4099 6.15826C41.621 5.95834 41.882 5.85838 42.193 5.85838C42.5039 5.85838 42.7594 5.95834 42.9593 6.15826C43.1703 6.34707 43.2759 6.58587 43.2759 6.87464C43.2759 7.17452 43.1759 7.42997 42.976 7.641C42.7761 7.84092 42.515 7.94088 42.193 7.94088ZM50.9277 9.5569C51.6497 9.5569 52.2828 9.69573 52.827 9.9734C53.3823 10.2511 53.8155 10.6731 54.1265 11.2396C54.4374 11.806 54.5929 12.5224 54.5929 13.3887V18.47H52.9936V13.572C52.9936 12.7167 52.7826 12.0726 52.3605 11.6394C51.9496 11.2062 51.3665 10.9897 50.6112 10.9897C50.0448 10.9897 49.5505 11.1007 49.1285 11.3229C48.7064 11.545 48.3788 11.8726 48.1455 12.3058C47.9234 12.739 47.8123 13.2776 47.8123 13.9218V18.47H46.213V9.6402H47.7457V12.0226L47.4958 11.3895C47.7846 10.812 48.2288 10.3621 48.8286 10.04C49.4283 9.71795 50.1281 9.5569 50.9277 9.5569ZM62.4342 9.5569C63.1561 9.5569 63.7892 9.69573 64.3334 9.9734C64.8888 10.2511 65.3219 10.6731 65.6329 11.2396C65.9439 11.806 66.0994 12.5224 66.0994 13.3887V18.47H64.5V13.572C64.5 12.7167 64.289 12.0726 63.867 11.6394C63.456 11.2062 62.8729 10.9897 62.1177 10.9897C61.5512 10.9897 61.057 11.1007 60.6349 11.3229C60.2129 11.545 59.8852 11.8726 59.652 12.3058C59.4298 12.739 59.3188 13.2776 59.3188 13.9218V18.47H57.7194V9.6402H59.2521V12.0226L59.0022 11.3895C59.291 10.812 59.7353 10.3621 60.335 10.04C60.9348 9.71795 61.6345 9.5569 62.4342 9.5569ZM73.1576 18.57C72.2136 18.57 71.3806 18.3756 70.6586 17.9869C69.9478 17.5981 69.3925 17.065 68.9926 16.3875C68.6039 15.71 68.4095 14.9325 68.4095 14.0551C68.4095 13.1777 68.5984 12.4002 68.976 11.7227C69.3647 11.0452 69.8923 10.5176 70.5587 10.14C71.2362 9.75127 71.997 9.5569 72.8411 9.5569C73.6963 9.5569 74.4516 9.74571 75.1069 10.1233C75.7622 10.501 76.2731 11.0341 76.6396 11.7227C77.0172 12.4002 77.206 13.1943 77.206 14.1051C77.206 14.1717 77.2005 14.2495 77.1894 14.3383C77.1894 14.4272 77.1838 14.5105 77.1727 14.5882H69.659V13.4387H76.3397L75.69 13.8385C75.7011 13.2721 75.5845 12.7667 75.3401 12.3225C75.0958 11.8782 74.757 11.5339 74.3238 11.2895C73.9018 11.0341 73.4075 10.9064 72.8411 10.9064C72.2858 10.9064 71.7915 11.0341 71.3584 11.2895C70.9252 11.5339 70.5865 11.8837 70.3421 12.3391C70.0978 12.7834 69.9756 13.2943 69.9756 13.8718V14.1384C69.9756 14.7271 70.1089 15.2546 70.3754 15.7211C70.6531 16.1765 71.0363 16.5319 71.525 16.7873C72.0137 17.0428 72.5745 17.1705 73.2076 17.1705C73.7296 17.1705 74.2017 17.0817 74.6237 16.904C75.0569 16.7263 75.4345 16.4597 75.7566 16.1043L76.6396 17.1372C76.2397 17.6037 75.7399 17.9591 75.1402 18.2034C74.5515 18.4478 73.8907 18.57 73.1576 18.57ZM79.5935 18.47V9.6402H81.1262V12.0392L80.9763 11.4395C81.2206 10.8286 81.6316 10.3621 82.2091 10.04C82.7866 9.71795 83.4975 9.5569 84.3416 9.5569V11.1063C84.2749 11.0952 84.2083 11.0896 84.1417 11.0896C84.0861 11.0896 84.0306 11.0896 83.9751 11.0896C83.1198 11.0896 82.4423 11.3451 81.9425 11.856C81.4427 12.3669 81.1928 13.1055 81.1928 14.0718V18.47H79.5935Z" fill="#FFD147"/>
<rect x="0.899994" y="0.304993" width="88.5062" height="24.99" rx="5.20625" fill="#F1C644" fill-opacity="0.24"/>
</svg>
